<?xml version="1.0" encoding="UTF-8"?><svg id="uuid-beb5c801-89bf-4580-a53d-b840d6221f57" xmlns="http://www.w3.org/2000/svg" viewBox="0 0 942.27 392.82"><path d="M136.88,228h-24.43c-2.62,0-4.74-2.12-4.74-4.74v-43.31c0-2.62,2.12-4.74,4.74-4.74h1.26c2.62,0,4.74,2.12,4.74,4.74v37.91h18.44c2.62,0,4.74,2.12,4.74,4.74v.66c0,2.62-2.12,4.74-4.74,4.74Z" style="fill:#fff;"/><path d="M180.05,228h-25.03c-2.62,0-4.74-2.12-4.74-4.74v-43.31c0-2.62,2.12-4.74,4.74-4.74h25.03c2.62,0,4.74,2.12,4.74,4.74v.66c0,2.62-2.12,4.74-4.74,4.74h-19.04v10.68h17.8c2.62,0,4.74,2.12,4.74,4.74v.59c0,2.62-2.12,4.74-4.74,4.74h-17.8v11.78h19.04c2.62,0,4.74,2.12,4.74,4.74v.66c0,2.62-2.12,4.74-4.74,4.74Z" style="fill:#fff;"/><path d="M227.89,228h-1.58c-1.74,0-3.34-.95-4.17-2.48l-7.6-14.05c-.83-1.53-2.43-2.48-4.17-2.48h-4.88v14.27c0,2.62-2.12,4.74-4.74,4.74h-1.26c-2.62,0-4.74-2.12-4.74-4.74v-43.31c0-2.62,2.12-4.74,4.74-4.74h15.64c3.45,0,6.54.69,9.16,2.05,2.69,1.39,4.81,3.37,6.3,5.89,1.48,2.5,2.23,5.45,2.23,8.75,0,3.88-1.01,7.25-3.02,10.07-1.48,2.09-3.37,3.72-5.64,4.88l7.86,14.09c1.76,3.16-.52,7.04-4.14,7.04ZM205.49,198.96h9.12c2.48,0,4.28-.57,5.51-1.74,1.2-1.14,1.78-2.81,1.78-5.11s-.61-3.87-1.88-5.03c-1.32-1.21-3.18-1.8-5.68-1.8h-8.85v13.68Z" style="fill:#fff;"/><path d="M279.22,228h-1.21c-2.01,0-3.8-1.26-4.47-3.16l-3.3-9.33c-.27-.76-.98-1.26-1.79-1.26h-13.3c-.8,0-1.52.51-1.79,1.26l-3.31,9.34c-.67,1.89-2.46,3.15-4.46,3.15h-1.21c-3.3,0-5.59-3.29-4.44-6.39l16.12-43.31c.69-1.85,2.46-3.08,4.44-3.08h2.63c1.98,0,3.75,1.23,4.44,3.09l16.09,43.31c1.15,3.09-1.14,6.39-4.44,6.39ZM259.98,204.42h3.66c1.31,0,2.22-1.29,1.79-2.53l-2.3-6.5c-.44-1.24-2.18-1.24-2.62,0l-2.31,6.5c-.44,1.23.48,2.53,1.79,2.53Z" style="fill:#fff;"/><path d="M18.79,194.47c-4.06,0-8.2-2.41-10.32-6-1.88-3.18-1.85-6.71.09-10.19,27.66-49.92,80.43-81.18,137.73-81.58,7.07,0,10.24,5.32,10.26,10.6.02,5.39-3.16,10.85-10.3,10.9-49.43.35-95.1,27.57-119.19,71.05-1.89,3.42-4.75,5.22-8.27,5.22Z" style="fill:#fec457;"/><path d="M180.72,387.71c-1.75,0-3.53-.49-5.28-1.47-49.92-27.66-81.18-80.44-81.58-137.73-.02-2.97.88-5.39,2.68-7.2,1.93-1.94,4.83-3.06,7.97-3.06,5.37,0,10.81,3.19,10.86,10.3.35,49.43,27.57,95.1,71.05,119.19,6.09,3.37,5.43,8.81,4.87,10.99-1.13,4.35-5.21,8.97-10.56,8.97h0Z" style="fill:#5ac2ab;"/><path d="M270.64,351.97c-41.49,0-82.21-16.69-111.72-45.79-3.14-3.1-4.01-6.93-2.43-10.77,1.79-4.36,6.25-7.53,10.62-7.53,2.57,0,4.94,1.05,7.05,3.13,25.8,25.44,59.96,39.45,96.19,39.45,12.93,0,25.83-1.82,38.34-5.41,1.11-.32,2.2-.48,3.22-.48,5.69,0,8.97,4.92,9.61,9.48.63,4.5-1,9.97-7.51,11.84-14.08,4.04-28.67,6.09-43.35,6.09h0Z" style="fill:#2ea5de;"/><path d="M245.59,300.94c-6.99,0-10.14-5.33-10.16-10.6-.02-5.39,3.16-10.85,10.3-10.9,49.43-.35,95.1-27.57,119.19-71.05,1.89-3.42,4.75-5.22,8.27-5.22,4.05,0,8.2,2.41,10.31,6,1.88,3.18,1.85,6.71-.08,10.2-27.66,49.92-80.44,81.18-137.73,81.58h-.1Z" style="fill:#3c54a4;"/><path d="M297.32,239.09c-4.33,0-8.63-3.07-10.47-7.46-1.63-3.91-.81-7.81,2.31-10.97,34.71-35.2,47.75-86.74,34.04-134.52-.93-3.24-.49-6.19,1.28-8.54,2.02-2.68,5.75-4.42,9.5-4.42,5,0,8.67,2.78,10.07,7.63,15.74,54.86.53,114.28-39.7,155.08-2.09,2.12-4.45,3.2-7.02,3.2h0Z" style="fill:#8a5fa8;"/><path d="M287.47,159.38c-5.37,0-10.81-3.19-10.86-10.3-.35-49.43-27.57-95.1-71.05-119.19-6.09-3.37-5.43-8.81-4.87-10.99,1.12-4.35,5.21-8.97,10.56-8.97,1.75,0,3.52.49,5.28,1.47,49.92,27.66,81.18,80.44,81.58,137.73.02,2.97-.88,5.39-2.68,7.2-1.93,1.94-4.83,3.06-7.96,3.06h0Z" style="fill:#ec6ca9;"/><path d="M224.87,109.76c-2.57,0-4.94-1.05-7.05-3.13-25.8-25.44-59.96-39.45-96.19-39.45-12.93,0-25.82,1.82-38.33,5.41-1.11.32-2.19.48-3.22.48-5.69,0-8.97-4.92-9.61-9.48-.63-4.5,1.01-9.97,7.51-11.84,14.08-4.04,28.67-6.09,43.36-6.09,41.49,0,82.21,16.69,111.72,45.79,3.14,3.1,4.01,6.92,2.43,10.77-1.79,4.36-6.25,7.53-10.62,7.53Z" style="fill:#f05153;"/><path d="M58.99,324.46c-5.01,0-8.68-2.78-10.07-7.63-15.74-54.86-.53-114.28,39.7-155.08,2.09-2.12,4.45-3.2,7.02-3.2,4.32,0,8.63,3.07,10.46,7.46,1.63,3.91.81,7.81-2.31,10.97-34.71,35.2-47.75,86.74-34.04,134.52.93,3.24.49,6.19-1.28,8.54-2.02,2.68-5.75,4.42-9.49,4.42h0Z" style="fill:#f1df6a;"/><path d="M533.35,47.04h14.75v58.3h31.35v12.16h-46.09V47.04Z" style="fill:#fff;"/><path d="M590.63,47.57c0-4.44,3.66-7.96,8.06-7.96s8.01,3.52,8.01,7.96-3.61,7.91-8.01,7.91-8.06-3.52-8.06-7.91ZM591.51,63.74h14.26v53.76h-14.26v-53.76Z" style="fill:#fff;"/><path d="M620.12,63.74h14.26v8.3h.88c2.44-5.81,7.76-9.47,15.43-9.47,11.96,0,18.41,7.32,18.41,20.17v34.77h-14.26v-31.54c0-7.57-3.12-11.57-9.86-11.57s-10.6,4.74-10.6,12.01v31.1h-14.26v-53.76Z" style="fill:#fff;"/><path d="M681.89,121.01v-.24h14.11l.05.2c.78,3.12,4.49,5.27,10.84,5.27,7.62,0,12.06-3.56,12.06-9.81v-10.01h-.88c-2.98,5.66-8.64,8.74-16.11,8.74-13.53,0-21.88-10.45-21.88-25.73v-.1c0-15.82,8.35-26.46,22.12-26.46,7.37,0,13.13,3.61,16.02,9.67h.68v-8.79h14.26v52.1c0,12.6-10.3,20.56-26.56,20.56-14.89,0-23.54-6.25-24.71-15.38ZM719.1,89.37v-.1c0-8.84-4.64-14.84-12.3-14.84s-12.11,6.01-12.11,14.84v.1c0,8.84,4.39,14.84,12.11,14.84s12.3-6.01,12.3-14.84Z" style="fill:#fff;"/><path d="M747.91,43.18h14.26v41.8h.88l17.97-21.24h16.16l-20.65,22.8,22.07,30.96h-16.85l-15.67-22.17-3.91,4.15v18.02h-14.26V43.18Z" style="fill:#fff;"/><path d="M802.74,102.21v-.1c0-9.67,7.47-15.33,20.85-16.11l12.99-.78v-4.44c0-4.64-3.17-7.28-9.03-7.28-5.13,0-8.4,1.81-9.52,4.98l-.1.2h-13.18l.05-.44c1.12-9.42,10.01-15.67,23.54-15.67,14.26,0,22.31,6.74,22.31,18.21v36.72h-14.06v-7.13h-.88c-2.73,4.98-8.4,7.96-15.43,7.96-10.25,0-17.53-6.35-17.53-16.11ZM825.05,107.93c6.59,0,11.52-4.35,11.52-10.01v-3.96l-10.84.68c-6.1.39-9.08,2.69-9.08,6.59v.1c0,4.1,3.47,6.59,8.4,6.59Z" style="fill:#fff;"/><path d="M864.6,63.74h14.26v8.35h.88c1.71-5.81,6.59-9.23,13.57-9.23,1.9,0,3.91.29,5.32.68v12.45c-2.15-.49-4.35-.83-6.54-.83-8.11,0-13.23,4.64-13.23,12.26v30.08h-14.26v-53.76Z" style="fill:#fff;"/><path d="M533.35,162.04h14.75v58.3h31.35v12.16h-46.09v-70.46Z" style="fill:#fff;"/><path d="M586.33,205.69v-.05c0-17.09,10.01-28.08,25.68-28.08s25.44,10.74,25.44,27v4.44h-37.01c.15,8.84,4.88,13.96,12.45,13.96,6.25,0,9.72-3.32,10.69-5.37l.15-.29h13.28l-.1.49c-1.66,6.74-8.59,15.82-24.32,15.82s-26.27-10.69-26.27-27.93ZM600.59,200.07h23.19c-.88-7.81-5.32-11.82-11.52-11.82s-10.79,4.2-11.67,11.82Z" style="fill:#fff;"/><path d="M649.08,178.74h14.26v8.3h.88c2.44-5.81,7.76-9.47,15.43-9.47,11.96,0,18.41,7.32,18.41,20.17v34.77h-14.26v-31.54c0-7.57-3.12-11.57-9.86-11.57s-10.6,4.74-10.6,12.01v31.1h-14.26v-53.76Z" style="fill:#fff;"/><path d="M715.78,217.99v-28.52h-8.3v-10.74h8.3v-12.84h14.4v12.84h11.08v10.74h-11.08v25.24c0,4.83,2.05,6.98,6.88,6.98,1.86,0,2.83-.1,4.2-.24v10.6c-1.76.34-4.39.63-7.13.63-13.09,0-18.36-4.25-18.36-14.7Z" style="fill:#fff;"/><path d="M750.1,205.69v-.05c0-17.09,10.01-28.08,25.68-28.08s25.44,10.74,25.44,27v4.44h-37.01c.15,8.84,4.88,13.96,12.45,13.96,6.25,0,9.72-3.32,10.69-5.37l.15-.29h13.28l-.1.49c-1.66,6.74-8.59,15.82-24.32,15.82s-26.27-10.69-26.27-27.93ZM764.36,200.07h23.19c-.88-7.81-5.32-11.82-11.52-11.82s-10.79,4.2-11.67,11.82Z" style="fill:#fff;"/><path d="M812.85,178.74h14.26v8.35h.88c1.71-5.81,6.59-9.23,13.57-9.23,1.9,0,3.91.29,5.32.68v12.45c-2.15-.49-4.35-.83-6.54-.83-8.11,0-13.23,4.64-13.23,12.26v30.08h-14.26v-53.76Z" style="fill:#fff;"/><path d="M852.5,217.21v-.1c0-9.67,7.47-15.33,20.85-16.11l12.99-.78v-4.44c0-4.64-3.17-7.28-9.03-7.28-5.13,0-8.4,1.81-9.52,4.98l-.1.2h-13.18l.05-.44c1.12-9.42,10.01-15.67,23.54-15.67,14.26,0,22.31,6.74,22.31,18.21v36.72h-14.06v-7.13h-.88c-2.73,4.98-8.4,7.96-15.43,7.96-10.25,0-17.53-6.35-17.53-16.11ZM874.81,222.93c6.59,0,11.52-4.35,11.52-10.01v-3.96l-10.84.68c-6.1.39-9.08,2.69-9.08,6.59v.1c0,4.1,3.47,6.59,8.4,6.59Z" style="fill:#fff;"/><path d="M533.35,277.04h29.35c16.02,0,25.2,8.54,25.2,22.41v.1c0,9.03-4.69,16.8-12.74,19.97l14.84,27.98h-16.7l-13.13-25.78h-12.06v25.78h-14.75v-70.46ZM561.09,310.97c7.37,0,11.72-4.2,11.72-11.13v-.1c0-6.79-4.54-11.18-11.91-11.18h-12.79v22.41h12.99Z" style="fill:#fff;"/><path d="M598.25,332.21v-.1c0-9.67,7.47-15.33,20.85-16.11l12.99-.78v-4.44c0-4.64-3.17-7.28-9.03-7.28-5.13,0-8.4,1.81-9.52,4.98l-.1.2h-13.18l.05-.44c1.12-9.42,10.01-15.67,23.54-15.67,14.26,0,22.31,6.74,22.31,18.21v36.72h-14.06v-7.13h-.88c-2.73,4.98-8.4,7.96-15.43,7.96-10.25,0-17.53-6.35-17.53-16.11ZM620.56,337.93c6.59,0,11.52-4.35,11.52-10.01v-3.96l-10.84.68c-6.1.39-9.08,2.69-9.08,6.59v.1c0,4.1,3.47,6.59,8.4,6.59Z" style="fill:#fff;"/><path d="M659.92,366.29v-10.74c.98.1,2.39.15,3.71.15,5.08,0,8.01-1.95,9.03-6.15l.49-2.05-18.9-53.76h15.67l11.28,40.72h.98l11.28-40.72h15.04l-18.31,53.71c-4.79,14.21-11.87,18.99-25.15,18.99-1.66,0-3.47-.05-5.13-.15Z" style="fill:#fff;"/><path d="M713.77,332.21v-.1c0-9.67,7.47-15.33,20.85-16.11l12.99-.78v-4.44c0-4.64-3.17-7.28-9.03-7.28-5.13,0-8.4,1.81-9.52,4.98l-.1.2h-13.18l.05-.44c1.12-9.42,10.01-15.67,23.54-15.67,14.26,0,22.31,6.74,22.31,18.21v36.72h-14.06v-7.13h-.88c-2.73,4.98-8.4,7.96-15.43,7.96-10.25,0-17.53-6.35-17.53-16.11ZM736.09,337.93c6.59,0,11.52-4.35,11.52-10.01v-3.96l-10.84.68c-6.1.39-9.08,2.69-9.08,6.59v.1c0,4.1,3.47,6.59,8.4,6.59Z" style="fill:#fff;"/></svg>